HIERARCHY
ROOT reference
{
  OFFSET -65.3212 -1.93545 -120.338
  CHANNELS 6 Xposition Yposition Zposition Zrotation Xrotation Yrotation
  JOINT Hips
  {
    OFFSET 0 78.7191 0
    CHANNELS 6 Xposition Yposition Zposition Zrotation Xrotation Yrotation
    JOINT Chest
    {
      OFFSET 0 8.7983 -4.7612
      CHANNELS 6 Xposition Yposition Zposition Zrotation Xrotation Yrotation
      JOINT Chest2
      {
        OFFSET 0 8.0291 0.4195
        CHANNELS 6 Xposition Yposition Zposition Zrotation Xrotation Yrotation
        JOINT Chest3
        {
          OFFSET 0 9.9351 -2.2114
          CHANNELS 6 Xposition Yposition Zposition Zrotation Xrotation Yrotation
          JOINT Neck
          {
            OFFSET 0 22.3885 -0.4656
            CHANNELS 6 Xposition Yposition Zposition Zrotation Xrotation Yrotation
            JOINT Head
            {
              OFFSET -0.0001 12.643 3.4389
              CHANNELS 6 Xposition Yposition Zposition Zrotation Xrotation Yrotation
              End Site
              {
                OFFSET 0.0001 17.6655 0.5274
              }
            }
          }
          JOINT LeftCollar
          {
            OFFSET 2.2603 21.606 7.4023
            CHANNELS 6 Xposition Yposition Zposition Zrotation Xrotation Yrotation
            JOINT LeftShoulder
            {
              OFFSET 13.5163 -1.1332 -5.0146
              CHANNELS 6 Xposition Yposition Zposition Zrotation Xrotation Yrotation
              JOINT LeftElbow
              {
                OFFSET -0.0995 -28.05 -0.2431
                CHANNELS 6 Xposition Yposition Zposition Zrotation Xrotation Yrotation
                JOINT LeftWrist
                {
                  OFFSET 0.0679 -23.3996 -0.1402
                  CHANNELS 6 Xposition Yposition Zposition Zrotation Xrotation Yrotation
                  JOINT LeftFinger1
                  {
                    OFFSET 0.7932 -9.069 2.5189
                    CHANNELS 6 Xposition Yposition Zposition Zrotation Xrotation Yrotation
                    JOINT LeftFinger11
                    {
                      OFFSET -0.8272 -3.3923 0.5977
                      CHANNELS 6 Xposition Yposition Zposition Zrotation Xrotation Yrotation
                      JOINT LeftFinger12
                      {
                        OFFSET -0.5649 -2.3158 0.4082
                        CHANNELS 6 Xposition Yposition Zposition Zrotation Xrotation Yrotation
                        End Site
                        {
                          OFFSET -0.4919 -1.6479 0.2673
                        }
                      }
                    }
                  }
                  JOINT LeftFinger2
                  {
                    OFFSET 0.9159 -9.2044 0.2193
                    CHANNELS 6 Xposition Yposition Zposition Zrotation Xrotation Yrotation
                    JOINT LeftFinger21
                    {
                      OFFSET 0.0117 -4.1944 -0.0248
                      CHANNELS 6 Xposition Yposition Zposition Zrotation Xrotation Yrotation
                      JOINT LeftFinger22
                      {
                        OFFSET 0.0071 -2.3249 -0.0142
                        CHANNELS 6 Xposition Yposition Zposition Zrotation Xrotation Yrotation
                        End Site
                        {
                          OFFSET -0.1475 -2.0882 0.0028
                        }
                      }
                    }
                  }
                  JOINT LeftFinger3
                  {
                    OFFSET 0.6113 -8.7231 -2.0637
                    CHANNELS 6 Xposition Yposition Zposition Zrotation Xrotation Yrotation
                    JOINT LeftFinger31
                    {
                      OFFSET -0.1927 -3.8059 -0.2383
                      CHANNELS 6 Xposition Yposition Zposition Zrotation Xrotation Yrotation
                      JOINT LeftFinger32
                      {
                        OFFSET -0.1091 -2.1688 -0.1362
                        CHANNELS 6 Xposition Yposition Zposition Zrotation Xrotation Yrotation
                        End Site
                        {
                          OFFSET -0.2358 -1.9176 -0.0906
                        }
                      }
                    }
                  }
                  JOINT LeftFinger4
                  {
                    OFFSET -0.6151 -8.0947 -3.5641
                    CHANNELS 6 Xposition Yposition Zposition Zrotation Xrotation Yrotation
                    JOINT LeftFinger41
                    {
                      OFFSET -0.4882 -2.341 -0.6462
                      CHANNELS 6 Xposition Yposition Zposition Zrotation Xrotation Yrotation
                      JOINT LeftFinger42
                      {
                        OFFSET -0.3575 -1.7167 -0.4742
                        CHANNELS 6 Xposition Yposition Zposition Zrotation Xrotation Yrotation
                        End Site
                        {
                          OFFSET -0.4187 -1.5237 -0.3496
                        }
                      }
                    }
                  }
                  JOINT LeftFinger0
                  {
                    OFFSET -1.42 -1.8761 1.4223
                    CHANNELS 6 Xposition Yposition Zposition Zrotation Xrotation Yrotation
                    JOINT LeftFinger01
                    {
                      OFFSET -1.1471 -3.4929 2.6334
                      CHANNELS 6 Xposition Yposition Zposition Zrotation Xrotation Yrotation
                      JOINT LeftFinger02
                      {
                        OFFSET -0.823 -2.3 1.6571
                        CHANNELS 6 Xposition Yposition Zposition Zrotation Xrotation Yrotation
                        End Site
                        {
                          OFFSET -0.5822 -1.6914 1.1582
                        }
                      }
                    }
                  }
                }
              }
            }
          }
          JOINT RightCollar
          {
            OFFSET -2.2603 21.606 7.4023
            CHANNELS 6 Xposition Yposition Zposition Zrotation Xrotation Yrotation
            JOINT RightShoulder
            {
              OFFSET -13.5187 -1.1334 -5.0155
              CHANNELS 6 Xposition Yposition Zposition Zrotation Xrotation Yrotation
              JOINT RightElbow
              {
                OFFSET 0.0994 -28.0499 -0.2431
                CHANNELS 6 Xposition Yposition Zposition Zrotation Xrotation Yrotation
                JOINT RightWrist
                {
                  OFFSET -0.0679 -23.3996 -0.1402
                  CHANNELS 6 Xposition Yposition Zposition Zrotation Xrotation Yrotation
                  JOINT RightFinger1
                  {
                    OFFSET -0.7932 -9.0691 2.5189
                    CHANNELS 6 Xposition Yposition Zposition Zrotation Xrotation Yrotation
                    JOINT RightFinger11
                    {
                      OFFSET 0.8272 -3.3923 0.5977
                      CHANNELS 6 Xposition Yposition Zposition Zrotation Xrotation Yrotation
                      JOINT RightFinger12
                      {
                        OFFSET 0.565 -2.3158 0.4082
                        CHANNELS 6 Xposition Yposition Zposition Zrotation Xrotation Yrotation
                        End Site
                        {
                          OFFSET 0.4919 -1.6479 0.2673
                        }
                      }
                    }
                  }
                  JOINT RightFinger2
                  {
                    OFFSET -0.916 -9.2044 0.2193
                    CHANNELS 6 Xposition Yposition Zposition Zrotation Xrotation Yrotation
                    JOINT RightFinger21
                    {
                      OFFSET -0.0117 -4.1944 -0.0248
                      CHANNELS 6 Xposition Yposition Zposition Zrotation Xrotation Yrotation
                      JOINT RightFinger22
                      {
                        OFFSET -0.0071 -2.3249 -0.0142
                        CHANNELS 6 Xposition Yposition Zposition Zrotation Xrotation Yrotation
                        End Site
                        {
                          OFFSET 0.1475 -2.0882 0.0028
                        }
                      }
                    }
                  }
                  JOINT RightFinger3
                  {
                    OFFSET -0.6113 -8.7231 -2.0637
                    CHANNELS 6 Xposition Yposition Zposition Zrotation Xrotation Yrotation
                    JOINT RightFinger31
                    {
                      OFFSET 0.1927 -3.8059 -0.2383
                      CHANNELS 6 Xposition Yposition Zposition Zrotation Xrotation Yrotation
                      JOINT RightFinger32
                      {
                        OFFSET 0.1091 -2.1688 -0.1362
                        CHANNELS 6 Xposition Yposition Zposition Zrotation Xrotation Yrotation
                        End Site
                        {
                          OFFSET 0.2358 -1.9176 -0.0906
                        }
                      }
                    }
                  }
                  JOINT RightFinger4
                  {
                    OFFSET 0.6151 -8.0947 -3.564
                    CHANNELS 6 Xposition Yposition Zposition Zrotation Xrotation Yrotation
                    JOINT RightFinger41
                    {
                      OFFSET 0.4882 -2.341 -0.6462
                      CHANNELS 6 Xposition Yposition Zposition Zrotation Xrotation Yrotation
                      JOINT RightFinger42
                      {
                        OFFSET 0.3574 -1.7166 -0.4742
                        CHANNELS 6 Xposition Yposition Zposition Zrotation Xrotation Yrotation
                        End Site
                        {
                          OFFSET 0.4187 -1.5237 -0.3496
                        }
                      }
                    }
                  }
                  JOINT RightFinger0
                  {
                    OFFSET 1.4199 -1.8761 1.4221
                    CHANNELS 6 Xposition Yposition Zposition Zrotation Xrotation Yrotation
                    JOINT RightFinger01
                    {
                      OFFSET 1.1472 -3.4929 2.6336
                      CHANNELS 6 Xposition Yposition Zposition Zrotation Xrotation Yrotation
                      JOINT RightFinger02
                      {
                        OFFSET 0.8229 -2.3 1.6571
                        CHANNELS 6 Xposition Yposition Zposition Zrotation Xrotation Yrotation
                        End Site
                        {
                          OFFSET 0.5822 -1.6914 1.1582
                        }
                      }
                    }
                  }
                }
              }
            }
          }
        }
      }
    }
    JOINT RightHip
    {
      OFFSET -9.412 3.9771 -0.7758
      CHANNELS 6 Xposition Yposition Zposition Zrotation Xrotation Yrotation
      JOINT RightKnee
      {
        OFFSET -0.7531 -40.938 0
        CHANNELS 6 Xposition Yposition Zposition Zrotation Xrotation Yrotation
        JOINT RightAnkle
        {
          OFFSET 0 -40.1986 0
          CHANNELS 6 Xposition Yposition Zposition Zrotation Xrotation Yrotation
          JOINT RightToe
          {
            OFFSET 0 -4.4182 9.239
            CHANNELS 6 Xposition Yposition Zposition Zrotation Xrotation Yrotation
            End Site
            {
              OFFSET 0 0 6.1981
            }
          }
        }
      }
    }
    JOINT LeftHip
    {
      OFFSET 9.4119 3.9773 -0.7758
      CHANNELS 6 Xposition Yposition Zposition Zrotation Xrotation Yrotation
      JOINT LeftKnee
      {
        OFFSET 0.7532 -40.9383 0
        CHANNELS 6 Xposition Yposition Zposition Zrotation Xrotation Yrotation
        JOINT LeftAnkle
        {
          OFFSET 0 -40.1986 0
          CHANNELS 6 Xposition Yposition Zposition Zrotation Xrotation Yrotation
          JOINT LeftToe
          {
            OFFSET 0 -4.4182 9.239
            CHANNELS 6 Xposition Yposition Zposition Zrotation Xrotation Yrotation
            End Site
            {
              OFFSET 0 0 6.1981
            }
          }
        }
      }
    }
  }
}
MOTION
Frames:	4
Frame Time:	0.0333333
-26.4792 -66.0815 85.2947 0 0 -0 3.55271e-015 78.7191 0 10.1808 -64.7109 21.1565 0 8.7983 -4.7612 -0.117312 -7.04081 0.342212 0 8.0291 0.4195 -0.194108 -14.0822 0.677527 0 9.9351 -2.2114 -0.194107 -14.0822 0.677532 0 22.3885 -0.4656 0.374489 -0.655502 -5.68353 -0.0001 12.643 3.4389 17.7696 4.87548 -1.56817 2.2603 21.606 7.4023 5.16432 -1.47311 -27.8654 13.5163 -1.1332 -5.0146 45.2083 -52.2694 28.1732 -0.0995 -28.05 -0.2431 65.7616 -77.3532 94.8811 0.0679 -23.3996 -0.1402 -26.4599 -19.3372 -24.4764 0.7932 -9.069 2.5189 -3.0346 13.5333 -2.18217 -0.8272 -3.3923 0.5977 -35.3168 20.4567 4.66819 -0.5649 -2.3158 0.4082 -36.3891 20.969 4.99619 0.9159 -9.2044 0.2193 -1.00369 1.77399 1.17347 0.0117 -4.1944 -0.0248 -42.7844 24.7471 5.54521 0.0071 -2.3249 -0.0142 -8.91268 5.62965 -0.441592 0.6113 -8.7231 -2.0637 -6.58204 6.72801 5.06496 -0.1927 -3.8059 -0.2383 -13.8829 9.68222 -0.672511 -0.1091 -2.1688 -0.1362 -15.268 10.6416 -0.610375 -0.6151 -8.0947 -3.5641 13.8074 -0.976151 8.79334 -0.4882 -2.341 -0.6462 -17.7368 12.2751 -1.06103 -0.3575 -1.7167 -0.4742 -8.75071 6.03019 -1.0008 -1.42 -1.8761 1.4223 -11.5752 -16.7455 -49.4477 -1.1471 -3.4929 2.6334 -4.53225 0.274134 0.312988 -0.823 -2.3 1.6571 8.53299 10.6973 -3.07921 -2.2603 21.606 7.4023 -21.9602 0.114074 4.53245 -13.5187 -1.1334 -5.0155 -58.9245 -73.268 -38.986 0.0994 -28.0499 -0.2431 11.9531 -49.9195 4.75187 -0.0679 -23.3996 -0.1402 3.97578 -37.8002 -6.13461 -0.7932 -9.0691 2.5189 20.8132 17.2476 -1.64453 0.8272 -3.3923 0.5977 39.2535 11.9924 -4.93879 0.565 -2.3158 0.4082 40.0955 12.1951 -5.12848 -0.916 -9.2044 0.2193 5.73487 3.01956 -1.23926 -0.0117 -4.1944 -0.0248 51.4242 15.4173 -6.16792 -0.0071 -2.3249 -0.0142 14.4547 4.90048 -0.276153 -0.6113 -8.7231 -2.0637 12.0241 6.76833 -5.49471 0.1927 -3.8059 -0.2383 20.2298 7.81098 -0.242908 0.1091 -2.1688 -0.1362 21.8125 8.40431 -0.378076 0.6151 -8.0947 -3.564 -13.6358 2.82536 -6.86718 0.4882 -2.341 -0.6462 21.0316 7.98083 0.327134 0.3574 -1.7166 -0.4742 10.7771 4.08719 0.530853 1.4199 -1.8761 1.4221 14.9861 -7.14841 53.2651 1.1472 -3.4929 2.6336 1.89441 -0.271217 -1.98343 0.8229 -2.3 1.6571 -14.8775 25.9548 12.1768 -9.412 3.9771 -0.7758 -29.614 -9.84152 -8.03318 -0.7531 -40.938 0 0.566732 -0.00244635 4.31524 0 -40.1986 3.55271e-015 15.0875 13.6176 -0.938563 -7.10543e-015 -4.4182 9.239 1.3764 9.20249 -0.640327 9.4119 3.9773 -0.7758 40.0733 -33.7717 17.0616 0.7532 -40.9383 -1.77636e-015 0.0358924 24.5283 -1.65717 0 -40.1986 0 -13.0213 9.99113 -15.42 7.10543e-015 -4.4182 9.239 0.20435 -1.52656 0.00262479 
-26.4581 -66.067 85.3641 0 0 -0 3.55271e-015 78.7191 0 10.349 -64.9144 21.2139 0 8.7983 -4.7612 -0.0678109 -6.95723 0.364132 -7.10543e-015 8.0291 0.4195 -0.0917152 -13.9148 0.72805 0 9.9351 -2.2114 -0.0917205 -13.9148 0.728046 7.10543e-015 22.3885 -0.4656 0.473172 -1.04598 -5.40232 -0.0001 12.643 3.4389 17.9366 4.89475 -1.43953 2.2603 21.606 7.4023 5.13321 -1.48072 -28.0385 13.5163 -1.1332 -5.0146 44.9609 -52.5582 28.0706 -0.0995 -28.05 -0.2431 66.5739 -76.6519 95.8679 0.0679 -23.3996 -0.1402 -27.1592 -18.9218 -25.0488 0.7932 -9.069 2.5189 -3.0346 13.5333 -2.18215 -0.8272 -3.3923 0.5977 -35.3168 20.4567 4.66819 -0.5649 -2.3158 0.4082 -36.3891 20.969 4.99618 0.9159 -9.2044 0.2193 -1.00372 1.77402 1.17349 0.0117 -4.1944 -0.0248 -42.7843 24.7471 5.5452 0.0071 -2.3249 -0.0142 -8.91269 5.62963 -0.441586 0.6113 -8.7231 -2.0637 -6.58205 6.72802 5.06497 -0.1927 -3.8059 -0.2383 -13.8829 9.68222 -0.672528 -0.1091 -2.1688 -0.1362 -15.2681 10.6416 -0.610396 -0.6151 -8.0947 -3.5641 13.8074 -0.976157 8.79334 -0.4882 -2.341 -0.6462 -17.7368 12.2751 -1.06105 -0.3575 -1.7167 -0.4742 -8.75071 6.0302 -1.00079 -1.42 -1.8761 1.4223 -11.5752 -16.7455 -49.4477 -1.1471 -3.4929 2.6334 -4.53225 0.274104 0.312996 -0.823 -2.3 1.6571 8.53298 10.6973 -3.0792 -2.2603 21.606 7.4023 -21.973 0.100288 4.81226 -13.5187 -1.1334 -5.0155 -59.7987 -73.4348 -39.8378 0.0994 -28.0499 -0.2431 11.49 -49.6593 4.10612 -0.0679 -23.3996 -0.1402 4.57562 -37.8138 -5.41219 -0.7932 -9.0691 2.5189 20.8133 17.2476 -1.64451 0.8272 -3.3923 0.5977 39.2536 11.9924 -4.93879 0.565 -2.3158 0.4082 40.0954 12.1951 -5.12849 -0.916 -9.2044 0.2193 5.7349 3.01957 -1.23927 -0.0117 -4.1944 -0.0248 51.4242 15.4173 -6.16793 -0.0071 -2.3249 -0.0142 14.4547 4.90053 -0.276156 -0.6113 -8.7231 -2.0637 12.0241 6.76831 -5.49471 0.1927 -3.8059 -0.2383 20.2298 7.81098 -0.242898 0.1091 -2.1688 -0.1362 21.8125 8.40431 -0.378101 0.6151 -8.0947 -3.564 -13.6358 2.82535 -6.86715 0.4882 -2.341 -0.6462 21.0316 7.98085 0.327119 0.3574 -1.7166 -0.4742 10.7771 4.0872 0.530843 1.4199 -1.8761 1.4221 14.9862 -7.14842 53.2651 1.1472 -3.4929 2.6336 1.8944 -0.271166 -1.98341 0.8229 -2.3 1.6571 -14.8775 25.9548 12.1768 -9.412 3.9771 -0.7758 -29.1561 -9.81311 -7.79742 -0.7531 -40.938 0 0.359041 -0.0547261 4.33403 0 -40.1986 3.55271e-015 15.2538 13.5915 -1.70023 0 -4.4182 9.239 1.4013 9.36081 -0.653447 9.4119 3.9773 -0.7758 40.085 -33.9727 16.9435 0.7532 -40.9383 1.77636e-015 -0.00190534 25.4041 -1.85051 1.42109e-014 -40.1986 7.10543e-015 -13.1355 9.87594 -15.6082 7.10543e-015 -4.4182 9.239 0.208854 -1.59813 -0.0140536 
-26.3889 -66.0519 85.4517 0 0 -0 3.55271e-015 78.7191 0 10.5734 -65.1545 21.2957 0 8.7983 -4.7612 -0.0120374 -6.85762 0.377952 0 8.0291 0.4195 0.0221187 -13.7153 0.762739 -7.10543e-015 9.9351 -2.2114 0.0221146 -13.7153 0.762735 0 22.3885 -0.4656 0.54676 -1.4469 -5.12592 -0.0001 12.643 3.4389 18.2342 4.88115 -1.20236 2.2603 21.606 7.4023 5.15889 -1.48539 -28.1859 13.5163 -1.1332 -5.0146 44.8934 -52.8405 28.0802 -0.0995 -28.05 -0.2431 67.6316 -75.9852 97.1737 0.0679 -23.3996 -0.1402 -27.6929 -18.4494 -25.6008 0.7932 -9.069 2.5189 -3.0346 13.5333 -2.18212 -0.8272 -3.3923 0.5977 -35.3168 20.4567 4.66817 -0.5649 -2.3158 0.4082 -36.3891 20.969 4.99621 0.9159 -9.2044 0.2193 -1.00372 1.774 1.17351 0.0117 -4.1944 -0.0248 -42.7843 24.7471 5.54521 0.0071 -2.3249 -0.0142 -8.91268 5.62963 -0.441553 0.6113 -8.7231 -2.0637 -6.58205 6.728 5.06499 -0.1927 -3.8059 -0.2383 -13.8829 9.68222 -0.672502 -0.1091 -2.1688 -0.1362 -15.268 10.6416 -0.610396 -0.6151 -8.0947 -3.5641 13.8074 -0.976157 8.79337 -0.4882 -2.341 -0.6462 -17.7368 12.2751 -1.06102 -0.3575 -1.7167 -0.4742 -8.75069 6.03019 -1.00077 -1.42 -1.8761 1.4223 -11.5752 -16.7455 -49.4477 -1.1471 -3.4929 2.6334 -4.53228 0.274102 0.312997 -0.823 -2.3 1.6571 8.53297 10.6973 -3.07918 -2.2603 21.606 7.4023 -22.1163 0.0836865 5.12863 -13.5187 -1.1334 -5.0155 -61.1248 -73.5004 -41.0743 0.0994 -28.0499 -0.2431 11.1519 -49.4987 3.36876 -0.0679 -23.3996 -0.1402 5.05275 -37.7933 -4.73758 -0.7932 -9.0691 2.5189 20.8132 17.2476 -1.64449 0.8272 -3.3923 0.5977 39.2535 11.9924 -4.93879 0.565 -2.3158 0.4082 40.0954 12.1951 -5.12845 -0.916 -9.2044 0.2193 5.73487 3.01957 -1.23924 -0.0117 -4.1944 -0.0248 51.4242 15.4173 -6.16793 -0.0071 -2.3249 -0.0142 14.4547 4.90054 -0.276144 -0.6113 -8.7231 -2.0637 12.0241 6.76832 -5.49471 0.1927 -3.8059 -0.2383 20.2298 7.81099 -0.242901 0.1091 -2.1688 -0.1362 21.8125 8.40426 -0.378069 0.6151 -8.0947 -3.564 -13.6358 2.82534 -6.86714 0.4882 -2.341 -0.6462 21.0316 7.98083 0.327108 0.3574 -1.7166 -0.4742 10.7771 4.08721 0.530834 1.4199 -1.8761 1.4221 14.9861 -7.14841 53.2651 1.1472 -3.4929 2.6336 1.8944 -0.271209 -1.98342 0.8229 -2.3 1.6571 -14.8775 25.9548 12.1768 -9.412 3.9771 -0.7758 -28.7218 -9.82684 -7.60142 -0.7531 -40.938 3.55271e-015 0.193128 0.10108 4.35761 7.10543e-015 -40.1986 0 15.2277 13.8557 -1.54748 7.10543e-015 -4.4182 9.239 1.38265 9.24227 -0.643625 9.4119 3.9773 -0.7758 40.0404 -34.4642 16.7933 0.7532 -40.9383 0 -0.0464059 26.9345 -2.02905 1.42109e-014 -40.1986 -7.10543e-015 -13.2727 9.49306 -15.7705 0 -4.4182 9.239 0.203801 -1.67033 -0.0627164 
-26.2913 -66.0317 85.5742 0 0 -0 3.55271e-015 78.7191 0 10.8562 -65.4246 21.4171 7.10543e-015 8.7983 -4.7612 0.053889 -6.74389 0.388162 0 8.0291 0.4195 0.155793 -13.4873 0.791082 0 9.9351 -2.2114 0.15579 -13.4874 0.791081 7.10543e-015 22.3885 -0.4656 0.594593 -1.89035 -4.80468 -0.0001 12.643 3.4389 18.5016 4.81751 -0.957566 2.2603 21.606 7.4023 5.11633 -1.48972 -28.3556 13.5163 -1.1332 -5.0146 45.1809 -53.0135 28.311 -0.0995 -28.05 -0.2431 68.92 -75.3963 98.827 0.0679 -23.3996 -0.1402 -28.0373 -17.9165 -26.0825 0.7932 -9.069 2.5189 -3.03462 13.5333 -2.18212 -0.8272 -3.3923 0.5977 -35.3168 20.4567 4.66819 -0.5649 -2.3158 0.4082 -36.3891 20.969 4.99622 0.9159 -9.2044 0.2193 -1.00372 1.77401 1.17351 0.0117 -4.1944 -0.0248 -42.7844 24.7471 5.54522 0.0071 -2.3249 -0.0142 -8.91266 5.62966 -0.441529 0.6113 -8.7231 -2.0637 -6.58207 6.72802 5.06502 -0.1927 -3.8059 -0.2383 -13.8829 9.68223 -0.67247 -0.1091 -2.1688 -0.1362 -15.268 10.6416 -0.610385 -0.6151 -8.0947 -3.5641 13.8074 -0.976152 8.79336 -0.4882 -2.341 -0.6462 -17.7368 12.2751 -1.06097 -0.3575 -1.7167 -0.4742 -8.75069 6.03022 -1.00077 -1.42 -1.8761 1.4223 -11.5753 -16.7454 -49.4478 -1.1471 -3.4929 2.6334 -4.53226 0.274108 0.313002 -0.823 -2.3 1.6571 8.53297 10.6973 -3.07916 -2.2603 21.606 7.4023 -22.2629 0.0649451 5.49688 -13.5187 -1.1334 -5.0155 -62.9018 -73.5262 -42.7048 0.0994 -28.0499 -0.2431 10.9206 -49.4172 2.46012 -0.0679 -23.3996 -0.1402 5.6468 -37.6484 -3.81814 -0.7932 -9.0691 2.5189 20.8132 17.2476 -1.64446 0.8272 -3.3923 0.5977 39.2535 11.9924 -4.93876 0.565 -2.3158 0.4082 40.0954 12.1951 -5.12843 -0.916 -9.2044 0.2193 5.7349 3.01958 -1.23922 -0.0117 -4.1944 -0.0248 51.4242 15.4173 -6.16792 -0.0071 -2.3249 -0.0142 14.4547 4.90052 -0.276144 -0.6113 -8.7231 -2.0637 12.0241 6.76832 -5.49471 0.1927 -3.8059 -0.2383 20.2298 7.81098 -0.242866 0.1091 -2.1688 -0.1362 21.8125 8.40426 -0.378079 0.6151 -8.0947 -3.564 -13.6358 2.82534 -6.86713 0.4882 -2.341 -0.6462 21.0316 7.98084 0.327129 0.3574 -1.7166 -0.4742 10.7771 4.08719 0.530872 1.4199 -1.8761 1.4221 14.9862 -7.14841 53.2651 1.1472 -3.4929 2.6336 1.89441 -0.271215 -1.98343 0.8229 -2.3 1.6571 -14.8775 25.9548 12.1768 -9.412 3.9771 -0.7758 -28.2915 -9.76748 -7.40894 -0.7531 -40.938 3.55271e-015 0.0491555 -0.00237656 4.32808 7.10543e-015 -40.1986 0 15.2466 13.9688 -2.19705 0 -4.4182 9.239 1.42371 9.50336 -0.665319 9.4119 3.9773 -0.7758 39.9586 -35.1456 16.6 0.7532 -40.9383 -7.10543e-015 -0.110151 28.9138 -2.20071 -1.42109e-014 -40.1986 0 -13.3238 8.92982 -16.0149 0 -4.4182 9.239 0.191889 -1.75678 -0.140572 
